<svg width="1363" height="163" viewBox="0 0 1363 163" fill="none" xmlns="http://www.w3.org/2000/svg">
<g clip-path="url(#clip0_439_41)">
<path d="M0 15C0 6.71573 6.71573 0 15 0H37V163H15C6.71573 163 0 156.284 0 148V15Z" fill="#424242"/>
<path d="M1134 0H37V163H1134V0Z" fill="#F0F0F0"/>
<path d="M110.062 92.0469L101.742 119H92.9062L105.445 84.875H111.047L110.062 92.0469ZM116.953 119L108.609 92.0469L107.531 84.875H113.203L125.812 119H116.953ZM116.625 106.273V112.625H99.1172V106.273H116.625ZM137.062 84.875V119H128.859V84.875H137.062ZM157.898 101.234V107.352H143.812V101.234H157.898ZM178.078 107.422H169.594V101.07H178.078C179.234 101.07 180.172 100.875 180.891 100.484C181.609 100.094 182.133 99.5547 182.461 98.8672C182.805 98.1641 182.977 97.375 182.977 96.5C182.977 95.5625 182.805 94.6953 182.461 93.8984C182.133 93.1016 181.609 92.4609 180.891 91.9766C180.172 91.4766 179.234 91.2266 178.078 91.2266H172.688V119H164.461V84.875H178.078C180.812 84.875 183.164 85.375 185.133 86.375C187.117 87.375 188.641 88.75 189.703 90.5C190.766 92.2344 191.297 94.2188 191.297 96.4531C191.297 98.6562 190.766 100.578 189.703 102.219C188.641 103.859 187.117 105.141 185.133 106.062C183.164 106.969 180.812 107.422 178.078 107.422ZM194.039 106.578V106.086C194.039 104.227 194.305 102.516 194.836 100.953C195.367 99.375 196.148 98.0078 197.18 96.8516C198.211 95.6953 199.484 94.7969 201 94.1562C202.516 93.5 204.266 93.1719 206.25 93.1719C208.25 93.1719 210.008 93.5 211.523 94.1562C213.055 94.7969 214.336 95.6953 215.367 96.8516C216.398 98.0078 217.18 99.375 217.711 100.953C218.242 102.516 218.508 104.227 218.508 106.086V106.578C218.508 108.422 218.242 110.133 217.711 111.711C217.18 113.273 216.398 114.641 215.367 115.812C214.336 116.969 213.062 117.867 211.547 118.508C210.031 119.148 208.281 119.469 206.297 119.469C204.312 119.469 202.555 119.148 201.023 118.508C199.492 117.867 198.211 116.969 197.18 115.812C196.148 114.641 195.367 113.273 194.836 111.711C194.305 110.133 194.039 108.422 194.039 106.578ZM201.938 106.086V106.578C201.938 107.531 202.008 108.422 202.148 109.25C202.289 110.078 202.523 110.805 202.852 111.43C203.18 112.039 203.625 112.516 204.188 112.859C204.75 113.203 205.453 113.375 206.297 113.375C207.125 113.375 207.812 113.203 208.359 112.859C208.922 112.516 209.367 112.039 209.695 111.43C210.023 110.805 210.258 110.078 210.398 109.25C210.539 108.422 210.609 107.531 210.609 106.578V106.086C210.609 105.164 210.539 104.297 210.398 103.484C210.258 102.656 210.023 101.93 209.695 101.305C209.367 100.664 208.922 100.164 208.359 99.8047C207.797 99.4453 207.094 99.2656 206.25 99.2656C205.422 99.2656 204.727 99.4453 204.164 99.8047C203.617 100.164 203.18 100.664 202.852 101.305C202.523 101.93 202.289 102.656 202.148 103.484C202.008 104.297 201.938 105.164 201.938 106.086ZM229.734 111.453L234.422 93.6406H239.367L237.609 102.57L232.969 119H229.008L229.734 111.453ZM227.883 93.6406L230.789 111.312L231.117 119H226.312L220.312 93.6406H227.883ZM243.539 110.938L246.469 93.6406H254.039L248.086 119H243.281L243.539 110.938ZM239.93 93.6406L244.664 111.406L245.391 119H241.383L236.836 102.617L235.148 93.6406H239.93ZM269.18 119.469C267.117 119.469 265.273 119.148 263.648 118.508C262.023 117.852 260.648 116.953 259.523 115.812C258.414 114.672 257.562 113.359 256.969 111.875C256.391 110.391 256.102 108.82 256.102 107.164V106.273C256.102 104.414 256.359 102.695 256.875 101.117C257.391 99.5234 258.156 98.1328 259.172 96.9453C260.188 95.7578 261.461 94.8359 262.992 94.1797C264.523 93.5078 266.305 93.1719 268.336 93.1719C270.133 93.1719 271.742 93.4609 273.164 94.0391C274.586 94.6172 275.789 95.4453 276.773 96.5234C277.773 97.6016 278.531 98.9062 279.047 100.438C279.578 101.969 279.844 103.688 279.844 105.594V108.805H259.125V103.859H272.133V103.25C272.148 102.406 272 101.688 271.688 101.094C271.391 100.5 270.953 100.047 270.375 99.7344C269.797 99.4219 269.094 99.2656 268.266 99.2656C267.406 99.2656 266.695 99.4531 266.133 99.8281C265.586 100.203 265.156 100.719 264.844 101.375C264.547 102.016 264.336 102.758 264.211 103.602C264.086 104.445 264.023 105.336 264.023 106.273V107.164C264.023 108.102 264.148 108.953 264.398 109.719C264.664 110.484 265.039 111.141 265.523 111.688C266.023 112.219 266.617 112.633 267.305 112.93C268.008 113.227 268.805 113.375 269.695 113.375C270.773 113.375 271.836 113.172 272.883 112.766C273.93 112.359 274.828 111.688 275.578 110.75L279.164 115.016C278.648 115.75 277.914 116.461 276.961 117.148C276.023 117.836 274.898 118.398 273.586 118.836C272.273 119.258 270.805 119.469 269.18 119.469ZM291.023 99.9219V119H283.125V93.6406H290.508L291.023 99.9219ZM298.523 93.4531L298.383 100.789C298.07 100.758 297.648 100.719 297.117 100.672C296.586 100.625 296.141 100.602 295.781 100.602C294.859 100.602 294.062 100.711 293.391 100.93C292.734 101.133 292.188 101.445 291.75 101.867C291.328 102.273 291.016 102.789 290.812 103.414C290.625 104.039 290.539 104.766 290.555 105.594L289.125 104.656C289.125 102.953 289.289 101.406 289.617 100.016C289.961 98.6094 290.445 97.3984 291.07 96.3828C291.695 95.3516 292.453 94.5625 293.344 94.0156C294.234 93.4531 295.234 93.1719 296.344 93.1719C296.734 93.1719 297.117 93.1953 297.492 93.2422C297.883 93.2891 298.227 93.3594 298.523 93.4531ZM313.055 119.469C310.992 119.469 309.148 119.148 307.523 118.508C305.898 117.852 304.523 116.953 303.398 115.812C302.289 114.672 301.438 113.359 300.844 111.875C300.266 110.391 299.977 108.82 299.977 107.164V106.273C299.977 104.414 300.234 102.695 300.75 101.117C301.266 99.5234 302.031 98.1328 303.047 96.9453C304.062 95.7578 305.336 94.8359 306.867 94.1797C308.398 93.5078 310.18 93.1719 312.211 93.1719C314.008 93.1719 315.617 93.4609 317.039 94.0391C318.461 94.6172 319.664 95.4453 320.648 96.5234C321.648 97.6016 322.406 98.9062 322.922 100.438C323.453 101.969 323.719 103.688 323.719 105.594V108.805H303V103.859H316.008V103.25C316.023 102.406 315.875 101.688 315.562 101.094C315.266 100.5 314.828 100.047 314.25 99.7344C313.672 99.4219 312.969 99.2656 312.141 99.2656C311.281 99.2656 310.57 99.4531 310.008 99.8281C309.461 100.203 309.031 100.719 308.719 101.375C308.422 102.016 308.211 102.758 308.086 103.602C307.961 104.445 307.898 105.336 307.898 106.273V107.164C307.898 108.102 308.023 108.953 308.273 109.719C308.539 110.484 308.914 111.141 309.398 111.688C309.898 112.219 310.492 112.633 311.18 112.93C311.883 113.227 312.68 113.375 313.57 113.375C314.648 113.375 315.711 113.172 316.758 112.766C317.805 112.359 318.703 111.688 319.453 110.75L323.039 115.016C322.523 115.75 321.789 116.461 320.836 117.148C319.898 117.836 318.773 118.398 317.461 118.836C316.148 119.258 314.68 119.469 313.055 119.469ZM341.508 113.188V83H349.453V119H342.328L341.508 113.188ZM325.945 106.625V106.133C325.945 104.211 326.156 102.461 326.578 100.883C327 99.2891 327.625 97.9219 328.453 96.7812C329.281 95.625 330.312 94.7344 331.547 94.1094C332.781 93.4844 334.203 93.1719 335.812 93.1719C337.25 93.1719 338.508 93.5078 339.586 94.1797C340.664 94.8359 341.586 95.7578 342.352 96.9453C343.117 98.1328 343.742 99.5234 344.227 101.117C344.711 102.695 345.078 104.398 345.328 106.227V106.812C345.078 108.531 344.711 110.156 344.227 111.688C343.742 113.203 343.117 114.547 342.352 115.719C341.586 116.891 340.656 117.812 339.562 118.484C338.484 119.141 337.219 119.469 335.766 119.469C334.156 119.469 332.734 119.148 331.5 118.508C330.281 117.867 329.258 116.969 328.43 115.812C327.617 114.656 327 113.297 326.578 111.734C326.156 110.172 325.945 108.469 325.945 106.625ZM333.844 106.133V106.625C333.844 107.578 333.906 108.461 334.031 109.273C334.156 110.086 334.367 110.805 334.664 111.43C334.977 112.039 335.383 112.516 335.883 112.859C336.398 113.203 337.031 113.375 337.781 113.375C338.797 113.375 339.633 113.133 340.289 112.648C340.961 112.164 341.453 111.477 341.766 110.586C342.094 109.695 342.234 108.648 342.188 107.445V105.594C342.219 104.562 342.148 103.656 341.977 102.875C341.805 102.078 341.531 101.414 341.156 100.883C340.797 100.352 340.336 99.9531 339.773 99.6875C339.227 99.4062 338.578 99.2656 337.828 99.2656C337.094 99.2656 336.469 99.4375 335.953 99.7812C335.453 100.125 335.047 100.609 334.734 101.234C334.422 101.844 334.195 102.57 334.055 103.414C333.914 104.242 333.844 105.148 333.844 106.133ZM380.719 92.0469L372.398 119H363.562L376.102 84.875H381.703L380.719 92.0469ZM387.609 119L379.266 92.0469L378.188 84.875H383.859L396.469 119H387.609ZM387.281 106.273V112.625H369.773V106.273H387.281ZM405.445 98.5156V128.75H397.547V93.6406H404.906L405.445 98.5156ZM421.008 106.016V106.508C421.008 108.352 420.797 110.062 420.375 111.641C419.953 113.219 419.328 114.594 418.5 115.766C417.672 116.938 416.641 117.852 415.406 118.508C414.188 119.148 412.773 119.469 411.164 119.469C409.648 119.469 408.344 119.133 407.25 118.461C406.156 117.789 405.242 116.859 404.508 115.672C403.773 114.484 403.18 113.125 402.727 111.594C402.273 110.062 401.914 108.445 401.648 106.742V106.109C401.914 104.281 402.273 102.586 402.727 101.023C403.18 99.4453 403.773 98.0703 404.508 96.8984C405.242 95.7266 406.148 94.8125 407.227 94.1562C408.32 93.5 409.625 93.1719 411.141 93.1719C412.75 93.1719 414.164 93.4766 415.383 94.0859C416.617 94.6953 417.648 95.5703 418.477 96.7109C419.32 97.8359 419.953 99.1875 420.375 100.766C420.797 102.344 421.008 104.094 421.008 106.016ZM413.109 106.508V106.016C413.109 105.031 413.039 104.133 412.898 103.32C412.758 102.492 412.531 101.773 412.219 101.164C411.922 100.555 411.523 100.086 411.023 99.7578C410.523 99.4297 409.906 99.2656 409.172 99.2656C408.328 99.2656 407.617 99.3984 407.039 99.6641C406.477 99.9141 406.023 100.305 405.68 100.836C405.352 101.352 405.117 102 404.977 102.781C404.852 103.547 404.797 104.445 404.812 105.477V107.398C404.781 108.586 404.898 109.633 405.164 110.539C405.43 111.43 405.891 112.125 406.547 112.625C407.203 113.125 408.094 113.375 409.219 113.375C409.969 113.375 410.594 113.203 411.094 112.859C411.594 112.5 411.992 112.008 412.289 111.383C412.586 110.742 412.797 110.008 412.922 109.18C413.047 108.352 413.109 107.461 413.109 106.508ZM432.492 98.5156V128.75H424.594V93.6406H431.953L432.492 98.5156ZM448.055 106.016V106.508C448.055 108.352 447.844 110.062 447.422 111.641C447 113.219 446.375 114.594 445.547 115.766C444.719 116.938 443.688 117.852 442.453 118.508C441.234 119.148 439.82 119.469 438.211 119.469C436.695 119.469 435.391 119.133 434.297 118.461C433.203 117.789 432.289 116.859 431.555 115.672C430.82 114.484 430.227 113.125 429.773 111.594C429.32 110.062 428.961 108.445 428.695 106.742V106.109C428.961 104.281 429.32 102.586 429.773 101.023C430.227 99.4453 430.82 98.0703 431.555 96.8984C432.289 95.7266 433.195 94.8125 434.273 94.1562C435.367 93.5 436.672 93.1719 438.188 93.1719C439.797 93.1719 441.211 93.4766 442.43 94.0859C443.664 94.6953 444.695 95.5703 445.523 96.7109C446.367 97.8359 447 99.1875 447.422 100.766C447.844 102.344 448.055 104.094 448.055 106.016ZM440.156 106.508V106.016C440.156 105.031 440.086 104.133 439.945 103.32C439.805 102.492 439.578 101.773 439.266 101.164C438.969 100.555 438.57 100.086 438.07 99.7578C437.57 99.4297 436.953 99.2656 436.219 99.2656C435.375 99.2656 434.664 99.3984 434.086 99.6641C433.523 99.9141 433.07 100.305 432.727 100.836C432.398 101.352 432.164 102 432.023 102.781C431.898 103.547 431.844 104.445 431.859 105.477V107.398C431.828 108.586 431.945 109.633 432.211 110.539C432.477 111.43 432.938 112.125 433.594 112.625C434.25 113.125 435.141 113.375 436.266 113.375C437.016 113.375 437.641 113.203 438.141 112.859C438.641 112.5 439.039 112.008 439.336 111.383C439.633 110.742 439.844 110.008 439.969 109.18C440.094 108.352 440.156 107.461 440.156 106.508Z" fill="black"/>
<path d="M1134 0H1348C1356.28 0 1363 6.71573 1363 15V148C1363 156.284 1356.28 163 1348 163H1134V0Z" fill="#7063F1"/>
<path d="M1248.5 70.1666V58.8333H1237.17" stroke="white" stroke-width="5" stroke-linecap="round" stroke-linejoin="round"/>
<path d="M1265.5 70.1667H1231.5C1228.37 70.1667 1225.83 72.7037 1225.83 75.8334V98.5C1225.83 101.63 1228.37 104.167 1231.5 104.167H1265.5C1268.63 104.167 1271.17 101.63 1271.17 98.5V75.8334C1271.17 72.7037 1268.63 70.1667 1265.5 70.1667Z" stroke="white" stroke-width="5" stroke-linecap="round" stroke-linejoin="round"/>
<path d="M1220.17 87.1667H1225.83" stroke="white" stroke-width="5" stroke-linecap="round" stroke-linejoin="round"/>
<path d="M1271.17 87.1667H1276.83" stroke="white" stroke-width="5" stroke-linecap="round" stroke-linejoin="round"/>
<path d="M1257 84.3333V90" stroke="white" stroke-width="5" stroke-linecap="round" stroke-linejoin="round"/>
<path d="M1240 84.3333V90" stroke="white" stroke-width="5" stroke-linecap="round" stroke-linejoin="round"/>
<path d="M101.906 53.9219L94.3945 51.2383V48.0859L104.602 52.375V54.6367L101.906 53.9219ZM94.3945 56.1719L101.918 53.4297L104.602 52.7852V55.0352L94.3945 59.3242V56.1719ZM122.789 55.3398H126.293C126.223 56.4883 125.906 57.5078 125.344 58.3984C124.789 59.2891 124.012 59.9844 123.012 60.4844C122.02 60.9844 120.824 61.2344 119.426 61.2344C118.332 61.2344 117.352 61.0469 116.484 60.6719C115.617 60.2891 114.875 59.7422 114.258 59.0312C113.648 58.3203 113.184 57.4609 112.863 56.4531C112.543 55.4453 112.383 54.3164 112.383 53.0664V51.8828C112.383 50.6328 112.547 49.5039 112.875 48.4961C113.211 47.4805 113.688 46.6172 114.305 45.9062C114.93 45.1953 115.676 44.6484 116.543 44.2656C117.41 43.8828 118.379 43.6914 119.449 43.6914C120.871 43.6914 122.07 43.9492 123.047 44.4648C124.031 44.9805 124.793 45.6914 125.332 46.5977C125.879 47.5039 126.207 48.5352 126.316 49.6914H122.801C122.762 49.0039 122.625 48.4219 122.391 47.9453C122.156 47.4609 121.801 47.0977 121.324 46.8555C120.855 46.6055 120.23 46.4805 119.449 46.4805C118.863 46.4805 118.352 46.5898 117.914 46.8086C117.477 47.0273 117.109 47.3594 116.812 47.8047C116.516 48.25 116.293 48.8125 116.145 49.4922C116.004 50.1641 115.934 50.9531 115.934 51.8594V53.0664C115.934 53.9492 116 54.7266 116.133 55.3984C116.266 56.0625 116.469 56.625 116.742 57.0859C117.023 57.5391 117.383 57.8828 117.82 58.1172C118.266 58.3438 118.801 58.457 119.426 58.457C120.16 58.457 120.766 58.3398 121.242 58.1055C121.719 57.8711 122.082 57.5234 122.332 57.0625C122.59 56.6016 122.742 56.0273 122.789 55.3398ZM127.852 54.7891V54.543C127.852 53.6133 127.984 52.7578 128.25 51.9766C128.516 51.1875 128.902 50.5039 129.41 49.9258C129.918 49.3477 130.543 48.8984 131.285 48.5781C132.027 48.25 132.879 48.0859 133.84 48.0859C134.801 48.0859 135.656 48.25 136.406 48.5781C137.156 48.8984 137.785 49.3477 138.293 49.9258C138.809 50.5039 139.199 51.1875 139.465 51.9766C139.73 52.7578 139.863 53.6133 139.863 54.543V54.7891C139.863 55.7109 139.73 56.5664 139.465 57.3555C139.199 58.1367 138.809 58.8203 138.293 59.4062C137.785 59.9844 137.16 60.4336 136.418 60.7539C135.676 61.0742 134.824 61.2344 133.863 61.2344C132.902 61.2344 132.047 61.0742 131.297 60.7539C130.555 60.4336 129.926 59.9844 129.41 59.4062C128.902 58.8203 128.516 58.1367 128.25 57.3555C127.984 56.5664 127.852 55.7109 127.852 54.7891ZM131.227 54.543V54.7891C131.227 55.3203 131.273 55.8164 131.367 56.2773C131.461 56.7383 131.609 57.1445 131.812 57.4961C132.023 57.8398 132.297 58.1094 132.633 58.3047C132.969 58.5 133.379 58.5977 133.863 58.5977C134.332 58.5977 134.734 58.5 135.07 58.3047C135.406 58.1094 135.676 57.8398 135.879 57.4961C136.082 57.1445 136.23 56.7383 136.324 56.2773C136.426 55.8164 136.477 55.3203 136.477 54.7891V54.543C136.477 54.0273 136.426 53.543 136.324 53.0898C136.23 52.6289 136.078 52.2227 135.867 51.8711C135.664 51.5117 135.395 51.2305 135.059 51.0273C134.723 50.8242 134.316 50.7227 133.84 50.7227C133.363 50.7227 132.957 50.8242 132.621 51.0273C132.293 51.2305 132.023 51.5117 131.812 51.8711C131.609 52.2227 131.461 52.6289 131.367 53.0898C131.273 53.543 131.227 54.0273 131.227 54.543ZM145.312 50.9453V61H141.926V48.3203H145.102L145.312 50.9453ZM144.844 54.2148H143.906C143.906 53.332 144.012 52.5195 144.223 51.7773C144.441 51.0273 144.758 50.3789 145.172 49.832C145.594 49.2773 146.113 48.8477 146.73 48.543C147.348 48.2383 148.062 48.0859 148.875 48.0859C149.438 48.0859 149.953 48.1719 150.422 48.3438C150.891 48.5078 151.293 48.7695 151.629 49.1289C151.973 49.4805 152.238 49.9414 152.426 50.5117C152.613 51.0742 152.707 51.75 152.707 52.5391V61H149.332V52.9141C149.332 52.3359 149.254 51.8906 149.098 51.5781C148.941 51.2656 148.719 51.0469 148.43 50.9219C148.148 50.7969 147.809 50.7344 147.41 50.7344C146.973 50.7344 146.59 50.8242 146.262 51.0039C145.941 51.1836 145.676 51.4336 145.465 51.7539C145.254 52.0664 145.098 52.4336 144.996 52.8555C144.895 53.2773 144.844 53.7305 144.844 54.2148ZM152.391 53.8281L151.184 53.9805C151.184 53.1523 151.285 52.3828 151.488 51.6719C151.699 50.9609 152.008 50.3359 152.414 49.7969C152.828 49.2578 153.34 48.8398 153.949 48.543C154.559 48.2383 155.262 48.0859 156.059 48.0859C156.668 48.0859 157.223 48.1758 157.723 48.3555C158.223 48.5273 158.648 48.8047 159 49.1875C159.359 49.5625 159.633 50.0547 159.82 50.6641C160.016 51.2734 160.113 52.0195 160.113 52.9023V61H156.727V52.9023C156.727 52.3164 156.648 51.8711 156.492 51.5664C156.344 51.2539 156.125 51.0391 155.836 50.9219C155.555 50.7969 155.219 50.7344 154.828 50.7344C154.422 50.7344 154.066 50.8164 153.762 50.9805C153.457 51.1367 153.203 51.3555 153 51.6367C152.797 51.918 152.645 52.2461 152.543 52.6211C152.441 52.9883 152.391 53.3906 152.391 53.8281ZM166.289 48.3203V61H162.902V48.3203H166.289ZM162.691 45.0156C162.691 44.5234 162.863 44.1172 163.207 43.7969C163.551 43.4766 164.012 43.3164 164.59 43.3164C165.16 43.3164 165.617 43.4766 165.961 43.7969C166.312 44.1172 166.488 44.5234 166.488 45.0156C166.488 45.5078 166.312 45.9141 165.961 46.2344C165.617 46.5547 165.16 46.7148 164.59 46.7148C164.012 46.7148 163.551 46.5547 163.207 46.2344C162.863 45.9141 162.691 45.5078 162.691 45.0156ZM174.316 58.5977C174.73 58.5977 175.098 58.5195 175.418 58.3633C175.738 58.1992 175.988 57.9727 176.168 57.6836C176.355 57.3867 176.453 57.0391 176.461 56.6406H179.637C179.629 57.5312 179.391 58.3242 178.922 59.0195C178.453 59.707 177.824 60.25 177.035 60.6484C176.246 61.0391 175.363 61.2344 174.387 61.2344C173.402 61.2344 172.543 61.0703 171.809 60.7422C171.082 60.4141 170.477 59.9609 169.992 59.3828C169.508 58.7969 169.145 58.1172 168.902 57.3438C168.66 56.5625 168.539 55.7266 168.539 54.8359V54.4961C168.539 53.5977 168.66 52.7617 168.902 51.9883C169.145 51.207 169.508 50.5273 169.992 49.9492C170.477 49.3633 171.082 48.9062 171.809 48.5781C172.535 48.25 173.387 48.0859 174.363 48.0859C175.402 48.0859 176.312 48.2852 177.094 48.6836C177.883 49.082 178.5 49.6523 178.945 50.3945C179.398 51.1289 179.629 52 179.637 53.0078H176.461C176.453 52.5859 176.363 52.2031 176.191 51.8594C176.027 51.5156 175.785 51.2422 175.465 51.0391C175.152 50.8281 174.766 50.7227 174.305 50.7227C173.812 50.7227 173.41 50.8281 173.098 51.0391C172.785 51.2422 172.543 51.5234 172.371 51.8828C172.199 52.2344 172.078 52.6367 172.008 53.0898C171.945 53.5352 171.914 54.0039 171.914 54.4961V54.8359C171.914 55.3281 171.945 55.8008 172.008 56.2539C172.07 56.707 172.188 57.1094 172.359 57.4609C172.539 57.8125 172.785 58.0898 173.098 58.293C173.41 58.4961 173.816 58.5977 174.316 58.5977ZM188.449 57.4961C188.449 57.2539 188.379 57.0352 188.238 56.8398C188.098 56.6445 187.836 56.4648 187.453 56.3008C187.078 56.1289 186.535 55.9727 185.824 55.832C185.184 55.6914 184.586 55.5156 184.031 55.3047C183.484 55.0859 183.008 54.8242 182.602 54.5195C182.203 54.2148 181.891 53.8555 181.664 53.4414C181.438 53.0195 181.324 52.5391 181.324 52C181.324 51.4688 181.438 50.9688 181.664 50.5C181.898 50.0312 182.23 49.6172 182.66 49.2578C183.098 48.8906 183.629 48.6055 184.254 48.4023C184.887 48.1914 185.598 48.0859 186.387 48.0859C187.488 48.0859 188.434 48.2617 189.223 48.6133C190.02 48.9648 190.629 49.4492 191.051 50.0664C191.48 50.6758 191.695 51.3711 191.695 52.1523H188.32C188.32 51.8242 188.25 51.5312 188.109 51.2734C187.977 51.0078 187.766 50.8008 187.477 50.6523C187.195 50.4961 186.828 50.418 186.375 50.418C186 50.418 185.676 50.4844 185.402 50.6172C185.129 50.7422 184.918 50.9141 184.77 51.1328C184.629 51.3438 184.559 51.5781 184.559 51.8359C184.559 52.0312 184.598 52.207 184.676 52.3633C184.762 52.5117 184.898 52.6484 185.086 52.7734C185.273 52.8984 185.516 53.0156 185.812 53.125C186.117 53.2266 186.492 53.3203 186.938 53.4062C187.852 53.5938 188.668 53.8398 189.387 54.1445C190.105 54.4414 190.676 54.8477 191.098 55.3633C191.52 55.8711 191.73 56.5391 191.73 57.3672C191.73 57.9297 191.605 58.4453 191.355 58.9141C191.105 59.3828 190.746 59.793 190.277 60.1445C189.809 60.4883 189.246 60.7578 188.59 60.9531C187.941 61.1406 187.211 61.2344 186.398 61.2344C185.219 61.2344 184.219 61.0234 183.398 60.6016C182.586 60.1797 181.969 59.6445 181.547 58.9961C181.133 58.3398 180.926 57.668 180.926 56.9805H184.125C184.141 57.4414 184.258 57.8125 184.477 58.0938C184.703 58.375 184.988 58.5781 185.332 58.7031C185.684 58.8281 186.062 58.8906 186.469 58.8906C186.906 58.8906 187.27 58.832 187.559 58.7148C187.848 58.5898 188.066 58.4258 188.215 58.2227C188.371 58.0117 188.449 57.7695 188.449 57.4961ZM208.992 56.5352C208.992 56.2305 208.945 55.957 208.852 55.7148C208.766 55.4648 208.602 55.2383 208.359 55.0352C208.117 54.8242 207.777 54.6172 207.34 54.4141C206.902 54.2109 206.336 54 205.641 53.7812C204.867 53.5312 204.133 53.25 203.438 52.9375C202.75 52.625 202.141 52.2617 201.609 51.8477C201.086 51.4258 200.672 50.9375 200.367 50.3828C200.07 49.8281 199.922 49.1836 199.922 48.4492C199.922 47.7383 200.078 47.0938 200.391 46.5156C200.703 45.9297 201.141 45.4297 201.703 45.0156C202.266 44.5938 202.93 44.2695 203.695 44.043C204.469 43.8164 205.316 43.7031 206.238 43.7031C207.496 43.7031 208.594 43.9297 209.531 44.3828C210.469 44.8359 211.195 45.457 211.711 46.2461C212.234 47.0352 212.496 47.9375 212.496 48.9531H209.004C209.004 48.4531 208.898 48.0156 208.688 47.6406C208.484 47.2578 208.172 46.957 207.75 46.7383C207.336 46.5195 206.812 46.4102 206.18 46.4102C205.57 46.4102 205.062 46.5039 204.656 46.6914C204.25 46.8711 203.945 47.1172 203.742 47.4297C203.539 47.7344 203.438 48.0781 203.438 48.4609C203.438 48.75 203.508 49.0117 203.648 49.2461C203.797 49.4805 204.016 49.6992 204.305 49.9023C204.594 50.1055 204.949 50.2969 205.371 50.4766C205.793 50.6562 206.281 50.832 206.836 51.0039C207.766 51.2852 208.582 51.6016 209.285 51.9531C209.996 52.3047 210.59 52.6992 211.066 53.1367C211.543 53.5742 211.902 54.0703 212.145 54.625C212.387 55.1797 212.508 55.8086 212.508 56.5117C212.508 57.2539 212.363 57.918 212.074 58.5039C211.785 59.0898 211.367 59.5859 210.82 59.9922C210.273 60.3984 209.621 60.707 208.863 60.918C208.105 61.1289 207.258 61.2344 206.32 61.2344C205.477 61.2344 204.645 61.125 203.824 60.9062C203.004 60.6797 202.258 60.3398 201.586 59.8867C200.922 59.4336 200.391 58.8555 199.992 58.1523C199.594 57.4492 199.395 56.6172 199.395 55.6562H202.922C202.922 56.1875 203.004 56.6367 203.168 57.0039C203.332 57.3711 203.562 57.668 203.859 57.8945C204.164 58.1211 204.523 58.2852 204.938 58.3867C205.359 58.4883 205.82 58.5391 206.32 58.5391C206.93 58.5391 207.43 58.4531 207.82 58.2812C208.219 58.1094 208.512 57.8711 208.699 57.5664C208.895 57.2617 208.992 56.918 208.992 56.5352ZM220.898 48.3203V50.7109H213.516V48.3203H220.898ZM215.344 45.1914H218.719V57.1797C218.719 57.5469 218.766 57.8281 218.859 58.0234C218.961 58.2188 219.109 58.3555 219.305 58.4336C219.5 58.5039 219.746 58.5391 220.043 58.5391C220.254 58.5391 220.441 58.5312 220.605 58.5156C220.777 58.4922 220.922 58.4688 221.039 58.4453L221.051 60.9297C220.762 61.0234 220.449 61.0977 220.113 61.1523C219.777 61.207 219.406 61.2344 219 61.2344C218.258 61.2344 217.609 61.1133 217.055 60.8711C216.508 60.6211 216.086 60.2227 215.789 59.6758C215.492 59.1289 215.344 58.4102 215.344 57.5195V45.1914ZM230.32 57.9648V48.3203H233.695V61H230.52L230.32 57.9648ZM230.695 55.3633L231.691 55.3398C231.691 56.1836 231.594 56.9688 231.398 57.6953C231.203 58.4141 230.91 59.0391 230.52 59.5703C230.129 60.0938 229.637 60.5039 229.043 60.8008C228.449 61.0898 227.75 61.2344 226.945 61.2344C226.328 61.2344 225.758 61.1484 225.234 60.9766C224.719 60.7969 224.273 60.5195 223.898 60.1445C223.531 59.7617 223.242 59.2734 223.031 58.6797C222.828 58.0781 222.727 57.3555 222.727 56.5117V48.3203H226.102V56.5352C226.102 56.9102 226.145 57.2266 226.23 57.4844C226.324 57.7422 226.453 57.9531 226.617 58.1172C226.781 58.2812 226.973 58.3984 227.191 58.4688C227.418 58.5391 227.668 58.5742 227.941 58.5742C228.637 58.5742 229.184 58.4336 229.582 58.1523C229.988 57.8711 230.273 57.4883 230.438 57.0039C230.609 56.5117 230.695 55.9648 230.695 55.3633ZM243.762 58.2344V43H247.16V61H244.102L243.762 58.2344ZM235.746 54.8125V54.5664C235.746 53.5977 235.855 52.7188 236.074 51.9297C236.293 51.1328 236.613 50.4492 237.035 49.8789C237.457 49.3086 237.977 48.8672 238.594 48.5547C239.211 48.2422 239.914 48.0859 240.703 48.0859C241.445 48.0859 242.094 48.2422 242.648 48.5547C243.211 48.8672 243.688 49.3125 244.078 49.8906C244.477 50.4609 244.797 51.1367 245.039 51.918C245.281 52.6914 245.457 53.5391 245.566 54.4609V55C245.457 55.8828 245.281 56.7031 245.039 57.4609C244.797 58.2188 244.477 58.8828 244.078 59.4531C243.688 60.0156 243.211 60.4531 242.648 60.7656C242.086 61.0781 241.43 61.2344 240.68 61.2344C239.891 61.2344 239.188 61.0742 238.57 60.7539C237.961 60.4336 237.445 59.9844 237.023 59.4062C236.609 58.8281 236.293 58.1484 236.074 57.3672C235.855 56.5859 235.746 55.7344 235.746 54.8125ZM239.121 54.5664V54.8125C239.121 55.3359 239.16 55.8242 239.238 56.2773C239.324 56.7305 239.461 57.1328 239.648 57.4844C239.844 57.8281 240.094 58.0977 240.398 58.293C240.711 58.4805 241.09 58.5742 241.535 58.5742C242.113 58.5742 242.59 58.4453 242.965 58.1875C243.34 57.9219 243.625 57.5586 243.82 57.0977C244.023 56.6367 244.141 56.1055 244.172 55.5039V53.9688C244.148 53.4766 244.078 53.0352 243.961 52.6445C243.852 52.2461 243.688 51.9062 243.469 51.625C243.258 51.3438 242.992 51.125 242.672 50.9688C242.359 50.8125 241.988 50.7344 241.559 50.7344C241.121 50.7344 240.746 50.8359 240.434 51.0391C240.121 51.2344 239.867 51.5039 239.672 51.8477C239.484 52.1914 239.344 52.5977 239.25 53.0664C239.164 53.5273 239.121 54.0273 239.121 54.5664ZM253.359 48.3203V61H249.973V48.3203H253.359ZM249.762 45.0156C249.762 44.5234 249.934 44.1172 250.277 43.7969C250.621 43.4766 251.082 43.3164 251.66 43.3164C252.23 43.3164 252.688 43.4766 253.031 43.7969C253.383 44.1172 253.559 44.5234 253.559 45.0156C253.559 45.5078 253.383 45.9141 253.031 46.2344C252.688 46.5547 252.23 46.7148 251.66 46.7148C251.082 46.7148 250.621 46.5547 250.277 46.2344C249.934 45.9141 249.762 45.5078 249.762 45.0156ZM255.609 54.7891V54.543C255.609 53.6133 255.742 52.7578 256.008 51.9766C256.273 51.1875 256.66 50.5039 257.168 49.9258C257.676 49.3477 258.301 48.8984 259.043 48.5781C259.785 48.25 260.637 48.0859 261.598 48.0859C262.559 48.0859 263.414 48.25 264.164 48.5781C264.914 48.8984 265.543 49.3477 266.051 49.9258C266.566 50.5039 266.957 51.1875 267.223 51.9766C267.488 52.7578 267.621 53.6133 267.621 54.543V54.7891C267.621 55.7109 267.488 56.5664 267.223 57.3555C266.957 58.1367 266.566 58.8203 266.051 59.4062C265.543 59.9844 264.918 60.4336 264.176 60.7539C263.434 61.0742 262.582 61.2344 261.621 61.2344C260.66 61.2344 259.805 61.0742 259.055 60.7539C258.312 60.4336 257.684 59.9844 257.168 59.4062C256.66 58.8203 256.273 58.1367 256.008 57.3555C255.742 56.5664 255.609 55.7109 255.609 54.7891ZM258.984 54.543V54.7891C258.984 55.3203 259.031 55.8164 259.125 56.2773C259.219 56.7383 259.367 57.1445 259.57 57.4961C259.781 57.8398 260.055 58.1094 260.391 58.3047C260.727 58.5 261.137 58.5977 261.621 58.5977C262.09 58.5977 262.492 58.5 262.828 58.3047C263.164 58.1094 263.434 57.8398 263.637 57.4961C263.84 57.1445 263.988 56.7383 264.082 56.2773C264.184 55.8164 264.234 55.3203 264.234 54.7891V54.543C264.234 54.0273 264.184 53.543 264.082 53.0898C263.988 52.6289 263.836 52.2227 263.625 51.8711C263.422 51.5117 263.152 51.2305 262.816 51.0273C262.48 50.8242 262.074 50.7227 261.598 50.7227C261.121 50.7227 260.715 50.8242 260.379 51.0273C260.051 51.2305 259.781 51.5117 259.57 51.8711C259.367 52.2227 259.219 52.6289 259.125 53.0898C259.031 53.543 258.984 54.0273 258.984 54.543Z" fill="#888888"/>
</g>
<defs>
<clipPath id="clip0_439_41">
<rect width="1363" height="163" fill="white"/>
</clipPath>
</defs>
</svg>
